<svg 
 xmlns="http://www.w3.org/2000/svg"
 xmlns:xlink="http://www.w3.org/1999/xlink"
 width="0.776cm" height="0.988cm">
<path fill-rule="evenodd"  fill="rgb(248, 176, 80)"
 d="M21.994,24.203 L20.421,6.150 C20.387,5.749 20.055,5.445 19.667,5.445 L16.430,5.445 C16.385,2.434 13.968,0.000 11.000,0.000 C8.032,0.000 5.615,2.434 5.570,5.445 L2.333,5.445 C1.939,5.445 1.613,5.749 1.579,6.150 L0.006,24.203 C0.006,24.226 -0.000,24.249 -0.000,24.273 C-0.000,26.328 1.849,28.000 4.126,28.000 L17.874,28.000 C20.151,28.000 22.000,26.328 22.000,24.273 C22.000,24.249 22.000,24.226 21.994,24.203 ZM11.000,1.546 C13.130,1.546 14.867,3.286 14.912,5.445 L7.088,5.445 C7.133,3.286 8.870,1.546 11.000,1.546 ZM17.874,26.454 L4.126,26.454 C2.698,26.454 1.540,25.492 1.518,24.307 L3.024,6.997 L5.565,6.997 L5.565,9.345 C5.565,9.774 5.902,10.118 6.323,10.118 C6.745,10.118 7.082,9.774 7.082,9.345 L7.082,6.997 L14.912,6.997 L14.912,9.345 C14.912,9.774 15.249,10.118 15.671,10.118 C16.092,10.118 16.430,9.774 16.430,9.345 L16.430,6.997 L18.970,6.997 L20.482,24.307 C20.460,25.492 19.296,26.454 17.874,26.454 Z"/>
</svg>