<svg 
 xmlns="http://www.w3.org/2000/svg"
 xmlns:xlink="http://www.w3.org/1999/xlink"
 width="1.446cm" height="1.905cm">
<path fill-rule="evenodd"  fill="rgb(248, 155, 32)"
 d="M33.311,54.000 L7.689,54.000 C3.446,54.000 -0.000,50.776 -0.000,46.811 C-0.000,46.767 0.010,46.722 0.010,46.678 L2.943,11.860 C3.006,11.087 3.614,10.501 4.347,10.501 L10.381,10.501 C10.465,4.694 14.969,-0.000 20.500,-0.000 C26.031,-0.000 30.535,4.694 30.619,10.501 L36.653,10.501 C37.376,10.501 37.993,11.087 38.056,11.860 L40.989,46.678 C41.000,46.722 41.000,46.767 41.000,46.811 C41.000,50.776 37.554,54.000 33.311,54.000 ZM20.500,2.982 C16.530,2.982 13.293,6.338 13.209,10.501 L27.791,10.501 C27.707,6.338 24.470,2.982 20.500,2.982 ZM35.354,13.494 L30.619,13.494 L30.619,18.022 C30.619,18.851 29.990,19.513 29.205,19.513 C28.419,19.513 27.791,18.851 27.791,18.022 L27.791,13.494 L13.199,13.494 L13.199,18.022 C13.199,18.851 12.570,19.513 11.785,19.513 C10.999,19.513 10.370,18.851 10.370,18.022 L10.370,13.494 L5.636,13.494 L2.828,46.878 C2.870,49.163 5.028,51.019 7.689,51.019 L33.311,51.019 C35.961,51.019 38.130,49.163 38.172,46.878 L35.354,13.494 ZM28.884,44.357 C28.369,44.357 27.950,43.932 27.950,43.418 C27.950,40.494 25.546,38.100 22.591,38.100 L19.444,38.100 C16.438,38.100 14.084,40.430 14.084,43.380 C14.084,43.893 13.666,44.331 13.151,44.331 C12.636,44.331 12.217,43.922 12.217,43.408 C12.217,39.481 15.459,36.303 19.444,36.303 L22.591,36.303 C26.576,36.303 29.818,39.496 29.818,43.447 C29.818,43.960 29.399,44.357 28.884,44.357 ZM28.247,32.144 C26.010,32.144 24.121,30.215 24.121,27.931 C24.121,27.418 24.539,27.001 25.054,27.001 C25.570,27.001 25.988,27.418 25.988,27.931 C25.988,29.206 27.023,30.283 28.247,30.283 C28.762,30.283 29.180,30.698 29.180,31.214 C29.180,31.727 28.762,32.144 28.247,32.144 ZM12.116,32.095 C11.600,32.095 11.182,31.679 11.182,31.165 C11.182,30.650 11.600,30.233 12.116,30.233 C13.393,30.233 14.472,29.201 14.472,27.980 C14.472,27.467 14.891,27.050 15.406,27.050 C15.921,27.050 16.340,27.467 16.340,27.980 C16.340,30.211 14.405,32.095 12.116,32.095 Z"/>
</svg>