<svg 
 xmlns="http://www.w3.org/2000/svg"
 xmlns:xlink="http://www.w3.org/1999/xlink"
 width="0.988cm" height="0.847cm">
<path fill-rule="evenodd"  fill="rgb(248, 177, 82)"
 d="M14.000,13.680 C14.242,13.680 14.438,13.878 14.438,14.123 C14.438,14.367 14.242,14.565 14.000,14.565 L12.129,14.565 C11.887,14.565 11.691,14.367 11.691,14.123 L11.691,10.349 C11.691,10.104 11.887,9.906 12.129,9.906 L14.000,9.906 C14.242,9.906 14.438,10.105 14.438,10.349 C14.438,10.593 14.242,10.791 14.000,10.791 L12.568,10.791 L12.568,11.795 C12.578,11.794 12.587,11.793 12.597,11.793 L13.532,11.793 C13.774,11.793 13.971,11.991 13.971,12.236 C13.971,12.480 13.774,12.678 13.532,12.678 L12.597,12.678 C12.587,12.678 12.578,12.677 12.568,12.676 L12.568,13.680 L14.000,13.680 ZM18.647,18.840 C18.647,19.084 18.451,19.283 18.209,19.283 L11.662,19.283 C11.420,19.283 11.223,19.084 11.223,18.840 C11.223,18.596 11.420,18.398 11.662,18.398 L18.209,18.398 C18.451,18.398 18.647,18.596 18.647,18.840 ZM17.273,13.680 C17.516,13.680 17.712,13.878 17.712,14.123 C17.712,14.367 17.516,14.565 17.273,14.565 L15.403,14.565 C15.161,14.565 14.964,14.367 14.964,14.123 L14.964,10.349 C14.964,10.104 15.161,9.906 15.403,9.906 L17.273,9.906 C17.516,9.906 17.712,10.105 17.712,10.349 C17.712,10.593 17.516,10.791 17.273,10.791 L15.841,10.791 L15.841,11.793 L16.338,11.793 C16.580,11.793 16.777,11.991 16.777,12.236 C16.777,12.480 16.580,12.678 16.338,12.678 L15.841,12.678 L15.841,13.680 L17.273,13.680 ZM8.388,14.565 C8.146,14.565 7.950,14.367 7.950,14.123 L7.950,10.349 C7.950,10.104 8.146,9.906 8.388,9.906 L9.557,9.906 C10.444,9.906 11.165,10.634 11.165,11.528 C11.165,12.096 10.874,12.595 10.436,12.885 L11.091,13.877 C11.226,14.081 11.171,14.355 10.970,14.490 C10.895,14.541 10.810,14.565 10.727,14.565 C10.585,14.565 10.446,14.496 10.362,14.368 L9.557,13.150 L8.827,13.150 L8.827,14.123 C8.827,14.367 8.630,14.565 8.388,14.565 ZM9.557,12.265 C9.960,12.265 10.288,11.934 10.288,11.528 C10.288,11.121 9.960,10.791 9.557,10.791 L8.827,10.791 L8.827,12.265 L9.557,12.265 ZM27.562,21.170 L26.129,21.170 C26.129,21.179 26.129,21.189 26.129,21.199 C26.129,22.743 24.884,24.000 23.353,24.000 C21.822,24.000 20.576,22.743 20.576,21.199 C20.576,21.189 20.577,21.179 20.577,21.170 L10.696,21.170 C10.697,21.179 10.697,21.189 10.697,21.199 C10.697,22.743 9.452,24.000 7.921,24.000 C6.390,24.000 5.144,22.743 5.144,21.199 C5.144,21.189 5.145,21.179 5.145,21.170 L2.777,21.170 C2.277,21.170 1.871,20.759 1.871,20.255 L1.871,19.283 L0.438,19.283 C0.196,19.283 -0.000,19.084 -0.000,18.840 C-0.000,18.596 0.196,18.398 0.438,18.398 L4.647,18.398 C4.889,18.398 5.086,18.596 5.086,18.840 C5.086,19.084 4.889,19.283 4.647,19.283 L2.747,19.283 L2.747,20.255 C2.747,20.272 2.760,20.285 2.777,20.285 L5.297,20.285 C5.673,19.188 6.707,18.398 7.921,18.398 C9.134,18.398 10.168,19.188 10.545,20.285 L19.641,20.285 L19.641,16.953 C19.641,16.709 19.837,16.511 20.079,16.511 C20.321,16.511 20.518,16.709 20.518,16.953 L20.518,20.285 L20.729,20.285 C21.105,19.188 22.139,18.398 23.353,18.398 C24.567,18.398 25.600,19.188 25.977,20.285 L27.123,20.285 L27.123,18.339 L26.626,18.339 C25.869,18.339 25.253,17.717 25.253,16.953 L25.253,16.010 C25.253,15.765 25.449,15.567 25.691,15.567 L27.054,15.567 C26.869,14.987 26.328,14.566 25.692,14.565 C25.692,14.565 25.691,14.565 25.691,14.565 C25.690,14.565 25.690,14.565 25.689,14.565 L20.518,14.565 L20.518,15.066 C20.518,15.310 20.321,15.509 20.079,15.509 C19.837,15.509 19.641,15.310 19.641,15.066 L19.641,7.047 C19.641,7.030 19.628,7.017 19.612,7.017 L2.777,7.017 C2.760,7.017 2.747,7.030 2.747,7.047 L2.747,15.066 C2.747,15.310 2.551,15.509 2.309,15.509 C2.067,15.509 1.871,15.310 1.871,15.066 L1.871,7.047 C1.871,6.542 2.277,6.132 2.777,6.132 L8.918,6.132 L5.186,4.626 C4.961,4.536 4.852,4.278 4.942,4.052 C5.031,3.825 5.287,3.714 5.511,3.805 L8.567,5.038 C7.636,4.435 6.715,3.772 6.364,3.308 C5.681,2.405 5.854,1.110 6.749,0.422 C7.645,-0.267 8.928,-0.093 9.611,0.810 C10.110,1.470 10.768,3.325 11.194,4.631 C11.620,3.324 12.278,1.470 12.777,0.810 C13.460,-0.093 14.744,-0.267 15.639,0.422 C16.534,1.110 16.707,2.406 16.024,3.308 C15.674,3.772 14.752,4.435 13.821,5.038 L16.877,3.805 C17.102,3.715 17.357,3.825 17.447,4.052 C17.537,4.278 17.427,4.536 17.203,4.626 L13.471,6.132 L19.612,6.132 C20.111,6.132 20.518,6.542 20.518,7.047 L20.518,8.019 L23.820,8.019 C24.836,8.019 25.662,8.853 25.662,9.877 L25.662,10.349 C25.662,10.561 25.513,10.739 25.315,10.781 L26.040,13.707 C27.148,13.877 28.000,14.845 28.000,16.010 L28.000,20.727 C28.000,20.971 27.804,21.170 27.562,21.170 ZM7.921,19.283 C6.873,19.283 6.021,20.142 6.021,21.199 C6.021,22.256 6.873,23.115 7.921,23.115 C8.968,23.115 9.820,22.256 9.820,21.199 C9.820,20.142 8.968,19.283 7.921,19.283 ZM23.353,19.283 C22.305,19.283 21.453,20.142 21.453,21.199 C21.453,22.256 22.305,23.115 23.353,23.115 C24.400,23.115 25.253,22.256 25.253,21.199 C25.253,20.142 24.400,19.283 23.353,19.283 ZM8.914,1.347 C8.685,1.044 8.337,0.885 7.986,0.885 C7.740,0.885 7.492,0.963 7.281,1.125 C6.770,1.518 6.672,2.257 7.061,2.772 C7.213,2.973 7.726,3.472 9.455,4.556 C9.805,4.775 10.145,4.980 10.441,5.156 C10.002,3.796 9.338,1.908 8.914,1.347 ZM15.327,2.772 C15.717,2.257 15.618,1.518 15.107,1.125 C14.596,0.732 13.864,0.831 13.474,1.347 C13.050,1.908 12.386,3.796 11.948,5.156 C12.244,4.980 12.584,4.775 12.933,4.556 C14.662,3.472 15.175,2.973 15.327,2.772 ZM24.785,9.877 C24.785,9.340 24.352,8.904 23.820,8.904 L20.518,8.904 L20.518,9.906 L24.785,9.906 L24.785,9.877 ZM24.413,10.791 L20.518,10.791 L20.518,13.680 L25.129,13.680 L24.413,10.791 ZM27.123,16.452 L26.129,16.452 L26.129,16.953 C26.129,17.230 26.352,17.454 26.626,17.454 L27.123,17.454 L27.123,16.452 ZM23.353,22.113 C22.853,22.113 22.447,21.703 22.447,21.199 C22.447,20.695 22.853,20.285 23.353,20.285 C23.852,20.285 24.259,20.695 24.259,21.199 C24.259,21.703 23.852,22.113 23.353,22.113 ZM7.921,22.113 C7.421,22.113 7.015,21.703 7.015,21.199 C7.015,20.695 7.421,20.285 7.921,20.285 C8.420,20.285 8.827,20.695 8.827,21.199 C8.827,21.703 8.420,22.113 7.921,22.113 ZM5.115,14.565 C4.873,14.565 4.676,14.367 4.676,14.123 L4.676,10.349 C4.676,10.104 4.873,9.906 5.115,9.906 L6.985,9.906 C7.228,9.906 7.424,10.105 7.424,10.349 C7.424,10.593 7.228,10.791 6.985,10.791 L5.553,10.791 L5.553,11.793 L6.518,11.793 C6.760,11.793 6.956,11.991 6.956,12.235 C6.956,12.480 6.760,12.678 6.518,12.678 L5.553,12.678 L5.553,14.123 C5.553,14.367 5.357,14.565 5.115,14.565 ZM7.424,16.953 C7.424,17.197 7.228,17.396 6.985,17.396 L1.374,17.396 C1.132,17.396 0.935,17.197 0.935,16.953 C0.935,16.709 1.132,16.511 1.374,16.511 L6.985,16.511 C7.228,16.511 7.424,16.709 7.424,16.953 Z"/>
</svg>