<svg 
 xmlns="http://www.w3.org/2000/svg"
 xmlns:xlink="http://www.w3.org/1999/xlink"
 width="0.847cm" height="0.6cm">
<path fill-rule="evenodd"  fill="rgb(158, 36, 32)"
 d="M22.753,17.000 L1.247,17.000 C0.559,17.000 0.000,16.419 0.000,15.705 L0.000,14.606 C0.000,14.385 0.172,14.206 0.385,14.206 L0.989,14.206 L0.989,1.524 C0.989,0.684 1.647,0.000 2.456,0.000 L21.544,0.000 C22.353,0.000 23.011,0.684 23.011,1.524 L23.011,14.206 L23.615,14.206 C23.828,14.206 24.000,14.385 24.000,14.606 L24.000,15.705 C24.000,16.419 23.441,17.000 22.753,17.000 ZM22.241,1.524 C22.241,1.125 21.928,0.800 21.544,0.800 L2.456,0.800 C2.072,0.800 1.759,1.125 1.759,1.524 L1.759,14.206 L22.241,14.206 L22.241,1.524 ZM10.870,15.006 L10.870,15.215 C10.870,15.309 10.943,15.385 11.033,15.385 L12.967,15.385 C13.057,15.385 13.130,15.309 13.130,15.215 L13.130,15.006 L10.870,15.006 ZM23.229,15.006 L22.626,15.006 L13.644,15.006 L13.644,15.215 C13.644,15.603 13.340,15.919 12.967,15.919 L11.033,15.919 C10.660,15.919 10.356,15.603 10.356,15.215 L10.356,15.006 L1.374,15.006 L0.771,15.006 L0.771,15.705 C0.771,15.978 0.984,16.200 1.247,16.200 L22.753,16.200 C23.016,16.200 23.229,15.978 23.229,15.705 L23.229,15.006 ZM2.738,1.200 L21.262,1.200 C21.589,1.200 21.856,1.477 21.856,1.816 L21.856,13.189 C21.856,13.529 21.589,13.806 21.262,13.806 L2.738,13.806 C2.411,13.806 2.144,13.529 2.144,13.189 L2.144,1.816 C2.144,1.477 2.411,1.200 2.738,1.200 ZM2.658,13.189 C2.658,13.235 2.694,13.272 2.738,13.272 L21.262,13.272 C21.306,13.272 21.342,13.235 21.342,13.189 L21.342,1.816 C21.342,1.771 21.306,1.734 21.262,1.734 L2.738,1.734 C2.694,1.734 2.658,1.771 2.658,1.816 L2.658,13.189 Z"/>
</svg>