<svg 
 xmlns="http://www.w3.org/2000/svg"
 xmlns:xlink="http://www.w3.org/1999/xlink"
 width="0.635cm" height="0.952cm">
<path fill-rule="evenodd"  fill="rgb(248, 155, 32)"
 d="M15.962,15.386 C14.860,16.876 13.678,18.312 12.530,19.771 C12.452,19.871 12.372,19.969 12.267,20.100 C12.541,20.152 12.780,20.196 13.018,20.242 C14.187,20.466 15.337,20.752 16.371,21.346 C16.693,21.532 17.006,21.749 17.279,21.996 C18.272,22.894 18.230,24.091 17.205,24.962 C16.343,25.694 15.304,26.078 14.222,26.372 C12.997,26.705 11.746,26.888 10.475,26.952 C10.371,26.958 10.268,26.984 10.164,27.000 C9.388,27.000 8.612,27.000 7.835,27.000 C7.469,26.965 7.101,26.932 6.735,26.895 C5.001,26.716 3.305,26.396 1.745,25.603 C1.218,25.335 0.739,24.998 0.392,24.526 C-0.225,23.688 -0.108,22.759 0.697,22.009 C1.512,21.249 2.530,20.850 3.598,20.564 C4.249,20.389 4.918,20.277 5.579,20.137 C5.620,20.129 5.659,20.116 5.738,20.095 C5.386,19.661 5.042,19.257 4.720,18.838 C3.683,17.491 2.616,16.163 1.633,14.780 C0.806,13.617 0.276,12.315 0.088,10.905 C-0.222,8.573 0.293,6.431 1.743,4.521 C2.896,3.003 4.415,1.957 6.274,1.381 C7.665,0.951 9.089,0.848 10.529,1.104 C13.364,1.608 15.492,3.084 16.898,5.489 C17.806,7.043 18.121,8.730 17.955,10.508 C17.786,12.325 17.039,13.928 15.962,15.386 ZM3.333,21.736 C2.675,21.915 2.052,22.218 1.531,22.665 C0.920,23.190 0.915,23.682 1.517,24.211 C2.054,24.684 2.715,24.948 3.389,25.173 C5.208,25.779 7.096,25.952 9.322,25.991 C9.841,25.954 10.678,25.914 11.509,25.828 C12.773,25.698 14.009,25.438 15.186,24.962 C15.707,24.751 16.209,24.502 16.604,24.100 C17.036,23.660 17.066,23.215 16.604,22.811 C16.245,22.498 15.822,22.232 15.386,22.026 C14.213,21.471 12.942,21.235 11.656,21.072 C11.573,21.062 11.444,21.135 11.388,21.207 C10.758,22.012 10.137,22.823 9.514,23.633 C9.180,24.069 8.813,24.065 8.477,23.625 C7.861,22.820 7.247,22.015 6.624,21.215 C6.567,21.142 6.436,21.055 6.360,21.070 C5.348,21.278 4.328,21.466 3.333,21.736 ZM15.730,5.610 C14.156,3.249 11.875,2.039 8.969,2.003 C7.213,1.981 5.615,2.528 4.204,3.557 C1.400,5.601 0.403,9.108 1.511,12.225 C1.990,13.573 2.799,14.742 3.684,15.863 C4.883,17.382 6.113,18.877 7.320,20.389 C7.882,21.093 8.423,21.813 8.999,22.558 C9.647,21.725 10.267,20.924 10.892,20.126 C12.328,18.294 13.796,16.483 15.195,14.624 C16.123,13.389 16.725,11.999 16.886,10.464 C17.068,8.724 16.715,7.088 15.730,5.610 ZM9.005,13.172 C6.949,13.174 5.297,11.586 5.296,9.606 C5.295,7.635 6.954,6.054 9.021,6.057 C11.057,6.059 12.703,7.653 12.704,9.623 C12.705,11.582 11.051,13.169 9.005,13.172 ZM8.990,7.073 C7.565,7.078 6.344,8.260 6.354,9.624 C6.364,10.995 7.592,12.165 9.010,12.156 C10.440,12.147 11.656,10.969 11.646,9.605 C11.636,8.233 10.414,7.067 8.990,7.073 Z"/>
</svg>