<svg 
 xmlns="http://www.w3.org/2000/svg"
 xmlns:xlink="http://www.w3.org/1999/xlink"
 width="0.706cm" height="0.706cm">
<path fill-rule="evenodd"  fill="rgb(248, 177, 82)"
 d="M10.000,20.000 C4.473,20.000 0.000,15.527 0.000,10.000 C0.000,4.472 4.473,-0.000 10.000,-0.000 C15.527,-0.000 20.000,4.473 20.000,10.000 C20.000,15.527 15.527,20.000 10.000,20.000 ZM10.000,1.562 C5.336,1.562 1.563,5.337 1.563,10.000 C1.563,14.664 5.337,18.437 10.000,18.437 C14.664,18.437 18.438,14.663 18.438,10.000 C18.438,5.336 14.663,1.562 10.000,1.562 ZM10.781,11.171 L10.781,12.441 C10.781,12.873 10.431,13.223 10.000,13.223 C9.569,13.223 9.219,12.873 9.219,12.441 L9.219,10.488 C9.219,10.057 9.569,9.707 10.000,9.707 C10.862,9.707 11.562,9.006 11.562,8.144 C11.562,7.283 10.862,6.582 10.000,6.582 C9.138,6.582 8.437,7.283 8.437,8.144 C8.437,8.576 8.088,8.926 7.656,8.926 C7.225,8.926 6.875,8.576 6.875,8.144 C6.875,6.421 8.277,5.019 10.000,5.019 C11.723,5.019 13.125,6.421 13.125,8.144 C13.125,9.598 12.128,10.823 10.781,11.171 ZM10.000,13.808 C10.539,13.808 10.977,14.246 10.977,14.785 C10.977,15.324 10.539,15.762 10.000,15.762 C9.461,15.762 9.023,15.324 9.023,14.785 C9.023,14.246 9.461,13.808 10.000,13.808 Z"/>
</svg>