<svg 
 xmlns="http://www.w3.org/2000/svg"
 xmlns:xlink="http://www.w3.org/1999/xlink"
 width="0.212cm" height="0.423cm">
<path fill-rule="evenodd"  fill="rgb(248, 155, 32)"
 d="M4.610,5.451 C4.156,5.191 3.673,4.992 3.194,4.787 C2.917,4.668 2.652,4.529 2.417,4.336 C1.956,3.954 2.044,3.335 2.585,3.089 C2.738,3.020 2.898,2.997 3.060,2.988 C3.687,2.953 4.283,3.072 4.849,3.354 C5.132,3.496 5.225,3.451 5.321,3.146 C5.421,2.824 5.505,2.497 5.598,2.172 C5.660,1.954 5.584,1.810 5.385,1.719 C5.022,1.553 4.649,1.434 4.256,1.369 C3.744,1.287 3.744,1.285 3.742,0.752 C3.740,0.001 3.740,0.001 3.013,0.001 C2.907,0.001 2.802,-0.001 2.697,0.001 C2.357,0.011 2.300,0.073 2.290,0.427 C2.286,0.586 2.290,0.745 2.288,0.906 C2.286,1.377 2.283,1.369 1.848,1.533 C0.796,1.929 0.145,2.673 0.076,3.863 C0.014,4.916 0.545,5.627 1.379,6.145 C1.893,6.465 2.463,6.653 3.008,6.903 C3.221,7.000 3.424,7.112 3.601,7.265 C4.125,7.714 4.029,8.460 3.407,8.742 C3.075,8.893 2.723,8.931 2.362,8.884 C1.805,8.812 1.272,8.661 0.769,8.390 C0.475,8.232 0.389,8.274 0.289,8.604 C0.202,8.889 0.126,9.176 0.049,9.464 C-0.053,9.850 -0.015,9.942 0.341,10.123 C0.796,10.351 1.281,10.467 1.776,10.549 C2.164,10.613 2.176,10.631 2.180,11.047 C2.183,11.236 2.183,11.426 2.185,11.615 C2.188,11.853 2.298,11.992 2.534,11.997 C2.802,12.001 3.072,12.001 3.340,11.994 C3.560,11.989 3.673,11.865 3.673,11.635 C3.673,11.377 3.685,11.117 3.675,10.859 C3.663,10.596 3.773,10.462 4.017,10.393 C4.579,10.234 5.057,9.922 5.426,9.456 C6.449,8.167 6.060,6.281 4.610,5.451 Z"/>
</svg>