<svg 
 xmlns="http://www.w3.org/2000/svg"
 xmlns:xlink="http://www.w3.org/1999/xlink"
 width="1.058cm" height="1.058cm">
<path fill-rule="evenodd"  stroke="rgb(248, 155, 32)" stroke-width="2px" stroke-linecap="butt" stroke-linejoin="miter" fill="rgb(248, 155, 32)"
 d="M28.000,14.501 C28.000,7.062 21.938,1.000 14.498,1.000 C7.059,1.000 1.000,7.062 1.000,14.501 C1.000,18.599 2.859,22.286 5.751,24.763 C5.786,24.798 5.821,24.834 5.888,24.865 C8.229,26.830 11.227,28.000 14.533,28.000 C17.770,28.000 20.768,26.830 23.108,24.935 C23.245,24.900 23.351,24.798 23.418,24.693 C26.211,22.180 28.000,18.564 28.000,14.501 ZM2.240,14.501 C2.240,7.751 7.751,2.241 14.502,2.241 C21.252,2.241 26.763,7.751 26.763,14.501 C26.763,17.809 25.455,20.803 23.319,23.009 C22.974,21.389 21.941,18.634 18.771,16.846 C19.495,15.949 19.907,14.779 19.907,13.538 C19.907,10.577 17.496,8.165 14.533,8.165 C11.571,8.165 9.160,10.577 9.160,13.538 C9.160,14.779 9.607,15.914 10.295,16.846 C7.097,18.634 6.064,21.389 5.755,23.009 C3.583,20.838 2.240,17.809 2.240,14.501 ZM10.369,13.570 C10.369,11.297 12.228,9.438 14.502,9.438 C16.775,9.438 18.634,11.297 18.634,13.570 C18.634,15.844 16.775,17.703 14.502,17.703 C12.228,17.703 10.369,15.844 10.369,13.570 ZM6.855,24.075 C6.925,23.076 7.473,19.699 11.195,17.805 C12.126,18.529 13.261,18.940 14.502,18.940 C15.742,18.940 16.912,18.494 17.843,17.770 C21.530,19.665 22.113,22.971 22.219,24.039 C20.117,25.726 17.432,26.760 14.540,26.760 C11.609,26.763 8.956,25.764 6.855,24.075 Z"/>
</svg>