<svg 
 xmlns="http://www.w3.org/2000/svg"
 xmlns:xlink="http://www.w3.org/1999/xlink"
 width="1.411cm" height="1.411cm">
<path fill-rule="evenodd"  fill="rgb(248, 155, 32)"
 d="M20.000,-0.000 C8.954,-0.000 -0.000,8.954 -0.000,20.000 C-0.000,31.046 8.954,40.000 20.000,40.000 C31.046,40.000 40.000,31.046 40.000,20.000 C40.000,8.954 31.046,-0.000 20.000,-0.000 ZM12.259,4.685 C11.901,5.181 11.558,5.714 11.233,6.285 C10.736,7.157 10.293,8.096 9.905,9.088 C9.078,8.860 8.255,8.605 7.437,8.320 C8.811,6.843 10.442,5.607 12.259,4.685 ZM5.364,11.046 C6.537,11.486 7.720,11.872 8.912,12.204 C8.421,14.146 8.117,16.223 8.015,18.367 L2.915,18.367 C3.168,15.703 4.031,13.216 5.364,11.046 ZM5.364,28.954 C4.031,26.784 3.168,24.297 2.915,21.633 L8.015,21.633 C8.118,23.778 8.421,25.854 8.912,27.796 C7.720,28.128 6.537,28.514 5.364,28.954 ZM7.437,31.679 C8.255,31.396 9.078,31.140 9.905,30.912 C10.293,31.904 10.736,32.843 11.233,33.715 C11.557,34.286 11.901,34.819 12.259,35.315 C10.442,34.393 8.811,33.157 7.437,31.679 ZM18.367,36.315 C16.275,35.530 14.422,33.280 13.131,30.172 C14.867,29.851 16.615,29.653 18.367,29.577 L18.367,36.315 ZM18.367,26.303 C16.269,26.387 14.176,26.633 12.098,27.041 C11.671,25.363 11.390,23.540 11.286,21.633 L18.367,21.633 L18.367,26.303 ZM18.367,18.367 L11.286,18.367 C11.390,16.460 11.671,14.637 12.098,12.960 C14.176,13.367 16.269,13.613 18.367,13.697 L18.367,18.367 ZM18.367,10.423 C16.615,10.347 14.867,10.148 13.131,9.828 C14.422,6.720 16.275,4.469 18.367,3.685 L18.367,10.423 ZM34.636,11.046 C35.969,13.216 36.832,15.704 37.085,18.367 L31.985,18.367 C31.882,16.223 31.578,14.146 31.088,12.204 C32.280,11.872 33.463,11.486 34.636,11.046 ZM32.564,8.321 C31.746,8.605 30.923,8.861 30.095,9.089 C29.707,8.096 29.264,7.157 28.768,6.285 C28.442,5.714 28.099,5.181 27.741,4.685 C29.558,5.607 31.189,6.843 32.564,8.321 ZM21.633,3.685 C23.725,4.469 25.578,6.721 26.869,9.829 C25.133,10.149 23.385,10.347 21.633,10.423 L21.633,3.685 ZM21.633,13.697 C23.731,13.613 25.825,13.367 27.902,12.960 C28.329,14.637 28.610,16.460 28.714,18.367 L21.633,18.367 L21.633,13.697 L21.633,13.697 ZM21.633,21.633 L28.714,21.633 C28.610,23.540 28.329,25.363 27.902,27.040 C25.825,26.633 23.731,26.387 21.633,26.303 L21.633,21.633 L21.633,21.633 ZM21.633,36.315 L21.633,29.577 C23.385,29.653 25.133,29.851 26.869,30.172 C25.578,33.280 23.725,35.530 21.633,36.315 ZM27.741,35.315 C28.100,34.819 28.443,34.286 28.768,33.715 C29.264,32.843 29.707,31.904 30.095,30.912 C30.922,31.139 31.746,31.395 32.564,31.679 C31.189,33.157 29.558,34.393 27.741,35.315 ZM34.636,28.954 C33.463,28.514 32.280,28.128 31.088,27.796 C31.579,25.854 31.882,23.777 31.985,21.633 L37.085,21.633 C36.832,24.297 35.969,26.784 34.636,28.954 Z"/>
</svg>